<svg width="18" height="18" viewBox="0 0 18 18" fill="none" xmlns="http://www.w3.org/2000/svg">
<g clip-path="url(#clip0_1_5)">
<path d="M8.96849 18.006L8.44569 17.5579C7.72495 16.9544 1.43173 11.5193 1.43173 7.54372C1.43173 3.38129 4.80606 0.00696182 8.96849 0.00696182C13.1309 0.00696182 16.5053 3.38129 16.5053 7.54372C16.5053 11.5194 10.212 16.9544 9.49429 17.5609L8.96849 18.006ZM8.96849 1.63663C5.70765 1.64032 3.06513 4.28284 3.06144 7.54369C3.06144 10.0413 6.93326 14.0311 8.96849 15.8572C11.0038 14.0303 14.8756 10.0382 14.8756 7.54369C14.8719 4.28284 12.2294 1.64036 8.96849 1.63663Z" fill="black"/>
<path d="M8.9685 10.5312C7.31854 10.5312 5.98099 9.19368 5.98099 7.54372C5.98099 5.89377 7.31854 4.55622 8.9685 4.55622C10.6184 4.55622 11.956 5.89377 11.956 7.54372C11.956 9.19368 10.6185 10.5312 8.9685 10.5312ZM8.9685 6.04994C8.14352 6.04994 7.47474 6.71871 7.47474 7.54369C7.47474 8.36867 8.14352 9.03744 8.9685 9.03744C9.79347 9.03744 10.4622 8.36867 10.4622 7.54369C10.4622 6.71871 9.79351 6.04994 8.9685 6.04994Z" fill="black"/>
</g>
<defs>
<clipPath id="clip0_1_5">
<rect width="18" height="18" fill="white"/>
</clipPath>
</defs>
</svg>
