<svg width="18" height="18" viewBox="0 0 18 18" fill="none" xmlns="http://www.w3.org/2000/svg">
<g clip-path="url(#clip0_1_3)">
<path d="M9.00001 -7.62939e-06C7.5783 0.000144626 6.17684 0.337109 4.91046 0.983282C3.64407 1.62946 2.54878 2.56645 1.71432 3.71751C0.879852 4.86858 0.329953 6.20096 0.109668 7.6055C-0.110618 9.01005 0.0049773 10.4468 0.446984 11.7981C0.88899 13.1493 1.64483 14.3766 2.65259 15.3795C3.66035 16.3823 4.89135 17.1322 6.24476 17.5676C7.59817 18.003 9.03547 18.1115 10.4389 17.8844C11.8424 17.6572 13.172 17.1008 14.319 16.2607L13.431 15.0517C12.0709 16.0477 10.4148 16.5564 8.73011 16.4957C7.04539 16.4351 5.43024 15.8086 4.14525 14.7174C2.86027 13.6261 1.98039 12.1338 1.6476 10.4812C1.31481 8.82852 1.54851 7.11195 2.31098 5.60843C3.07346 4.1049 4.32025 2.9021 5.85019 2.19409C7.38013 1.48609 9.10398 1.31418 10.7436 1.7061C12.3832 2.09801 13.843 3.0309 14.8874 4.35423C15.9318 5.67757 16.4999 7.31418 16.5 8.99999V10.5C16.5 10.8978 16.342 11.2793 16.0607 11.5607C15.7794 11.842 15.3978 12 15 12C14.6022 12 14.2207 11.842 13.9394 11.5607C13.658 11.2793 13.5 10.8978 13.5 10.5V8.99999C13.5037 7.94121 13.1352 6.9148 12.4589 6.10013C11.7826 5.28545 10.8416 4.73431 9.8002 4.54301C8.75883 4.3517 7.68336 4.5324 6.76169 5.05353C5.84002 5.57465 5.13077 6.40307 4.75788 7.39402C4.38498 8.38498 4.37214 9.47545 4.72161 10.4749C5.07107 11.4744 5.76062 12.3193 6.66976 12.8619C7.57891 13.4046 8.64983 13.6106 9.69542 13.4438C10.741 13.2771 11.6947 12.7483 12.39 11.9497C12.7098 12.5323 13.2146 12.9916 13.8246 13.2552C14.4347 13.5188 15.1151 13.5717 15.7585 13.4054C16.4019 13.2391 16.9716 12.8632 17.3775 12.3371C17.7834 11.8109 18.0025 11.1645 18 10.5V8.99999C17.9974 6.61384 17.0484 4.32615 15.3611 2.63888C13.6739 0.951613 11.3862 0.00257318 9.00001 -7.62939e-06ZM9.00001 12C8.40667 12 7.82665 11.824 7.3333 11.4944C6.83996 11.1648 6.45544 10.6962 6.22837 10.148C6.00131 9.59986 5.9419 8.99666 6.05766 8.41472C6.17341 7.83278 6.45914 7.29823 6.87869 6.87867C7.29825 6.45911 7.8328 6.17339 8.41474 6.05764C8.99669 5.94188 9.59989 6.00129 10.1481 6.22835C10.6962 6.45542 11.1648 6.83993 11.4944 7.33328C11.8241 7.82663 12 8.40665 12 8.99999C12 9.79564 11.6839 10.5587 11.1213 11.1213C10.5587 11.6839 9.79566 12 9.00001 12Z" fill="black"/>
</g>
<defs>
<clipPath id="clip0_1_3">
<rect width="18" height="18" fill="white"/>
</clipPath>
</defs>
</svg>
